<?xml version="1.0" encoding="utf-8"?>
<!-- Generator: Adobe Illustrator 22.0.1, SVG Export Plug-In . SVG Version: 6.00 Build 0)  -->
<svg version="1.1" id="圖層_1" xmlns="http://www.w3.org/2000/svg" xmlns:xlink="http://www.w3.org/1999/xlink" x="0px" y="0px"
	 viewBox="0 0 147 72" style="enable-background:new 0 0 147 72;" xml:space="preserve">
<style type="text/css">
	.st0{fill:#54BDD8;}
	.st1{fill:#FFFFFF;}
	.st2{font-family:'MicrosoftJhengHeiBold';}
	.st3{font-size:16px;}
</style>
<rect x="0" y="0.3" transform="matrix(1 -1.544211e-03 1.544211e-03 1 -5.563235e-02 0.1135)" class="st0" width="147" height="71.5"/>
<text transform="matrix(1 0 0 1 32.8994 61.7109)" class="st1 st2 st3">新書搶先報</text>
<path class="st1" d="M94.8,20.6v-2.7l-0.2-0.7c-0.1-0.1-1-1.7-2.7-3.3c-1.8-1.6-4.6-3.3-8.2-3.3c-3.6,0-6.4,1.7-8.1,3.3
	c-0.5,0.5-1,1-1.4,1.4c-0.4-0.5-0.9-0.9-1.4-1.4c-1.8-1.6-4.5-3.3-8.2-3.3c-3.6,0-6.4,1.7-8.1,3.3c-1.8,1.6-2.6,3.2-2.7,3.3
	l-0.2,0.7v2.7h-1.3v22.3h44.4V20.6H94.8z M60.3,38.4c1.2-0.7,2.6-1.2,4.4-1.2c1.7,0,3.2,0.5,4.4,1.2H60.3z M79.3,38.4
	c1.2-0.7,2.6-1.2,4.4-1.2c1.7,0,3.2,0.5,4.4,1.2H79.3z M91.8,37.4c-1.8-1.6-4.5-3.2-8.1-3.2c-3.5,0-6.2,1.6-8,3.1v-4.9l-3-1.3v6.3
	c-1.8-1.6-4.5-3.2-8.1-3.2c-3.5,0-6.2,1.6-8,3.1v-19c0.3-0.5,1-1.4,2-2.3c1.4-1.2,3.4-2.4,6-2.4c2.7,0,4.7,1.2,6.2,2.5
	c0.7,0.6,1.3,1.3,1.6,1.8c0.1,0.2,0.2,0.3,0.3,0.4v8.3l3,1.3v-9.6c0.3-0.5,1-1.4,2-2.3c1.4-1.2,3.4-2.4,6-2.4c2.7,0,4.7,1.2,6.2,2.5
	c0.7,0.6,1.3,1.3,1.6,1.8c0.1,0.2,0.2,0.3,0.3,0.4V37.4z"/>
<path class="st1" d="M72.1,27.4l-0.7,1.4l8.8,4.7c1.8-0.4,1.1-2,1.1-2L72.1,27.4z"/>
<path class="st1" d="M67.9,19.3c-3.1-1.6-6.9-0.3-8.4,2.8c-1.6,3.1-0.3,6.9,2.8,8.4c2.9,1.5,6.4,0.4,8.1-2.3l0,0
	c0.3-0.5,0.4-0.8,0.6-1.2C72,24.1,70.7,20.8,67.9,19.3 M69.3,27c-1.2,2.3-4,3.3-6.3,2.1c-2.3-1.2-3.3-4-2.1-6.3
	c1.2-2.3,4-3.3,6.3-2.1C69.5,21.9,70.4,24.7,69.3,27"/>
</svg>
