<?xml version="1.0" encoding="utf-8"?>
<!-- Generator: Adobe Illustrator 22.0.1, SVG Export Plug-In . SVG Version: 6.00 Build 0)  -->
<svg version="1.1" id="圖層_1" xmlns="http://www.w3.org/2000/svg" xmlns:xlink="http://www.w3.org/1999/xlink" x="0px" y="0px"
	 viewBox="0 0 147 72" style="enable-background:new 0 0 147 72;" xml:space="preserve">
<style type="text/css">
	.st0{fill:#5A99BF;}
	.st1{fill:#FFFFFF;}
	.st2{font-family:'MicrosoftJhengHeiBold';}
	.st3{font-size:16px;}
</style>
<rect y="0.2" class="st0" width="147" height="71.9"/>
<text transform="matrix(1 0 0 1 72.9336 44.0527)" class="st1 st2 st3">電影館</text>
<path class="st1" d="M60.4,34.3l-4.9,2.7v-1.4c0-0.4-0.1-0.9-0.3-1.3c1.3-1.5,2-3.4,2-5.5c0-4.7-3.8-8.4-8.4-8.4c-3.8,0-7,2.5-8.1,6
	c-1.1-3.5-4.3-6-8.1-6c-4.7,0-8.4,3.8-8.4,8.4c0,2,0.7,3.9,2,5.4c-0.3,0.4-0.4,0.9-0.4,1.4v0.8H22v13h3.7V50c0,1.4,1.2,2.5,2.6,2.5
	h24.6c1.4,0,2.6-1.1,2.6-2.5v-2.3l4.9,2.3V34.3z M40.6,31.3c0.2,0.8,0.6,1.6,1.1,2.2h-2.1C40,32.8,40.4,32.1,40.6,31.3 M28.1,28.8
	c0-2.5,2-4.5,4.5-4.5c2.5,0,4.5,2,4.5,4.5c0,2.5-2,4.5-4.5,4.5C30.1,33.3,28.1,31.3,28.1,28.8 M47.7,41.3H33v-2.6h14.7V41.3z
	 M48.7,33.3c-2.5,0-4.5-2-4.5-4.5c0-2.5,2-4.5,4.5-4.5c2.5,0,4.5,2,4.5,4.5C53.2,31.3,51.2,33.3,48.7,33.3"/>
<path class="st1" d="M32.6,26.9c-1.1,0-1.9,0.9-1.9,1.9c0,1.1,0.9,1.9,1.9,1.9c1.1,0,1.9-0.9,1.9-1.9C34.5,27.8,33.6,26.9,32.6,26.9
	"/>
<path class="st1" d="M48.7,26.9c-1.1,0-1.9,0.9-1.9,1.9c0,1.1,0.9,1.9,1.9,1.9c1.1,0,1.9-0.9,1.9-1.9C50.7,27.8,49.8,26.9,48.7,26.9
	"/>
<rect x="62.9" y="33.7" class="st1" width="2.7" height="16.8"/>
</svg>
