<?xml version="1.0" encoding="utf-8"?>
<!-- Generator: Adobe Illustrator 22.0.1, SVG Export Plug-In . SVG Version: 6.00 Build 0)  -->
<svg version="1.1" id="圖層_1" xmlns="http://www.w3.org/2000/svg" xmlns:xlink="http://www.w3.org/1999/xlink" x="0px" y="0px"
	 viewBox="0 0 98.5 75.6" style="enable-background:new 0 0 98.5 75.6;" xml:space="preserve">
<style type="text/css">
	.st0{fill:#54BDD8;}
	.st1{fill:#FFFFFF;}
	.st2{font-family:'MicrosoftJhengHeiBold';}
	.st3{font-size:16.9796px;}
</style>
<rect x="-5" y="-2.1" class="st0" width="108" height="78.8"/>
<text transform="matrix(1 0 0 1 13.2793 65.0879)" class="st1 st2 st3">青春‧原創</text>
<path class="st1" d="M66.2,22c-1.6-0.9-7-3.9-9.9-3.9c-0.1,0-0.3,0-0.4,0c-1.5,0.1-3.1,1.2-4.5,2.3c-0.6-2.8-1.5-4.7-2.8-5.8
	c-3-2.6-12.9-3.7-14.8-3.9c-0.7-0.1-1.4,0.2-1.9,0.8c-0.4,0.5-0.6,1.3-0.4,1.9c0.5,1.9,3.2,11.5,6.2,14c1.7,1.4,4.7,2.1,9.2,2.1
	c0.3,0,0.6,0,0.9,0v14.4h4.3V29.3c1.4,0.9,3.1,1.7,4.5,1.7c0.1,0,0.2,0,0.3,0c2.8-0.2,7.6-3.9,9.5-5.5c0.5-0.4,0.8-1.1,0.8-1.8
	C67.3,23,66.9,22.3,66.2,22 M47,25.3c-3.8,0-5.8-0.6-6.5-1.1c-1.1-0.9-2.7-4.8-4-8.8c4.2,0.6,8.3,1.6,9.3,2.5
	c0.9,0.8,1.7,4.2,1.9,7.5H47z M56.7,26.8c-0.6,0-2.1-0.9-3.6-2.1c1.3-1.3,2.6-2.3,3.2-2.3c0.8,0,2.8,0.8,4.9,1.8
	C59.2,25.6,57.3,26.7,56.7,26.8"/>
</svg>
