<?xml version="1.0" encoding="utf-8"?>
<!-- Generator: Adobe Illustrator 22.0.1, SVG Export Plug-In . SVG Version: 6.00 Build 0)  -->
<svg version="1.1" id="圖層_1" xmlns="http://www.w3.org/2000/svg" xmlns:xlink="http://www.w3.org/1999/xlink" x="0px" y="0px"
	 viewBox="0 0 147 72" style="enable-background:new 0 0 147 72;" xml:space="preserve">
<style type="text/css">
	.st0{fill:#5A99BF;}
	.st1{fill:#FFFFFF;}
	.st2{font-family:'MicrosoftJhengHeiBold';}
	.st3{font-size:16px;}
</style>
<rect y="0.5" class="st0" width="147" height="71.9"/>
<text transform="matrix(1 0 0 1 62.8213 44.8359)" class="st1 st2 st3">暢銷小說</text>
<path class="st1" d="M57.4,52.6c-0.2-0.5-0.7-0.7-1.1-0.6l-0.8,0.3v-5.5l1.4-0.5c0.3-0.1,0.5-0.3,0.6-0.6c0.1-0.3,0.1-0.5-0.1-0.8
	L40.6,19c-0.2-0.3-0.6-0.5-1-0.4l-25,8.3c-0.4,0.1-0.6,0.5-0.6,0.8v8.3c0,0.2,0.1,0.3,0.2,0.5l16.6,25c0.2,0.2,0.4,0.4,0.7,0.4
	c0.1,0,0.2,0,0.3,0l25.1-8.3C57.3,53.5,57.5,53,57.4,52.6 M30.7,58.4L15.7,35.9v-5.3L30.6,54c0,0,0,0.1,0,0.1c0,0,0,0.1,0,0.1V58.4z
	 M53.6,52.9l-21.2,7v-1.8l21.2-7.2V52.9z M53.6,49l-21.2,7.2v-1.8l21.2-7V49z M55.2,45l-23.2,7.7L16.4,28.3l23.1-7.7L55.2,45z"/>
<path class="st1" d="M43.8,35.1c0,0,0,0.1,0,0.1l-1,4.2c-0.1,0.2-0.2,0.4-0.5,0.4l-6.3,0h-6.3c-0.2,0-0.4-0.1-0.5-0.4l-1-4.2
	c0,0,0-0.1,0-0.1c-0.4-0.1-0.7-0.5-0.7-1c0-0.6,0.4-1,1-1c0.6,0,1,0.4,1,1c0,0.3-0.1,0.6-0.4,0.8l1.3,1.3c0.3,0.3,0.8,0.5,1.3,0.5
	c0.6,0,1.1-0.3,1.4-0.7l2.2-2.9C35.1,33,35,32.8,35,32.5c0-0.6,0.4-1,1-1c0.6,0,1,0.4,1,1c0,0.3-0.1,0.5-0.3,0.7l0,0l2.1,2.9
	c0.3,0.4,0.9,0.7,1.4,0.7c0.5,0,0.9-0.2,1.3-0.5l1.3-1.3c-0.2-0.2-0.4-0.5-0.4-0.8c0-0.6,0.4-1,1-1c0.6,0,1,0.4,1,1
	C44.5,34.6,44.2,35,43.8,35.1 M42.7,41.3c0-0.3-0.2-0.5-0.5-0.5H29.8c-0.3,0-0.5,0.2-0.5,0.5v1.1c0,0.3,0.2,0.5,0.5,0.5h12.3
	c0.3,0,0.5-0.2,0.5-0.5V41.3z"/>
</svg>
