<?xml version="1.0" encoding="utf-8"?>
<!-- Generator: Adobe Illustrator 22.0.1, SVG Export Plug-In . SVG Version: 6.00 Build 0)  -->
<svg version="1.1" id="圖層_1" xmlns="http://www.w3.org/2000/svg" xmlns:xlink="http://www.w3.org/1999/xlink" x="0px" y="0px"
	 viewBox="0 0 98.5 75.6" style="enable-background:new 0 0 98.5 75.6;" xml:space="preserve">
<style type="text/css">
	.st0{fill:#54BDD8;}
	.st1{fill:#FFFFFF;}
	.st2{font-family:'MicrosoftJhengHeiBold';}
	.st3{font-size:16.9796px;}
	.st4{font-size:17.8144px;}
</style>
<rect x="-5" y="-2.1" class="st0" width="108" height="78.8"/>
<text transform="matrix(1 0 0 1 13.2793 65.0879)" class="st1 st2 st3">青春‧原創</text>
<path class="st1" d="M66.2,22c-1.6-0.9-7-3.9-9.9-3.9c-0.1,0-0.3,0-0.4,0c-1.5,0.1-3.1,1.2-4.5,2.3c-0.6-2.8-1.5-4.7-2.8-5.8
	c-3-2.6-12.9-3.7-14.8-3.9c-0.7-0.1-1.4,0.2-1.9,0.8c-0.4,0.5-0.6,1.3-0.4,1.9c0.5,1.9,3.2,11.5,6.2,14c1.7,1.4,4.7,2.1,9.2,2.1
	c0.3,0,0.6,0,0.9,0v14.4h4.3V29.3c1.4,0.9,3.1,1.7,4.5,1.7c0.1,0,0.2,0,0.3,0c2.8-0.2,7.6-3.9,9.5-5.5c0.5-0.4,0.8-1.1,0.8-1.8
	C67.3,23,66.9,22.3,66.2,22 M47,25.3c-3.8,0-5.8-0.6-6.5-1.1c-1.1-0.9-2.7-4.8-4-8.8c4.2,0.6,8.3,1.6,9.3,2.5
	c0.9,0.8,1.7,4.2,1.9,7.5H47z M56.7,26.8c-0.6,0-2.1-0.9-3.6-2.1c1.3-1.3,2.6-2.3,3.2-2.3c0.8,0,2.8,0.8,4.9,1.8
	C59.2,25.6,57.3,26.7,56.7,26.8"/>
<rect x="-5" y="-2.4" class="st0" width="108" height="79.6"/>
<text transform="matrix(1 0 0 1 12.6748 66.5068)" class="st1 st2 st4">書展專區</text>
<path class="st1" d="M59.4,39.1c0-0.5-0.2-1-0.6-1.4c-0.4-0.4-0.9-0.6-1.4-0.6H35.5v4h21.9C58.5,41.1,59.4,40.2,59.4,39.1"/>
<path class="st1" d="M62.6,39.1c0-2.8-2.2-5.1-5-5.2H34.5c-0.5,0-0.9,0.4-0.9,0.9v0.4c0,0.5,0.4,0.9,0.9,0.9h23c1,0,1.8,0.5,2.4,1.2
	c0.4,0.5,0.7,1.2,0.6,1.9c0,0.7-0.2,1.3-0.6,1.8c-0.6,0.7-1.5,1.2-2.4,1.2H34.5c-0.5,0-0.9,0.4-0.9,0.9v0.4c0,0.5,0.4,0.9,0.9,0.9
	h22.9C60.3,44.3,62.6,42,62.6,39.1"/>
<path class="st1" d="M40.3,26.3c-0.4,0.4-0.6,0.9-0.6,1.4c0,1.1,0.9,2,2,2h21.9v-4H41.7C41.1,25.7,40.6,25.9,40.3,26.3"/>
<path class="st1" d="M64.6,22.5h-23c-2.9,0-5.2,2.3-5.2,5.2c0,2.8,2.3,5.1,5.1,5.2c0,0,23.1,0,23.1,0c0.5,0,0.9-0.4,0.9-0.9v-0.4
	c0-0.5-0.4-0.9-0.9-0.9H41.7c-1,0-1.9-0.5-2.4-1.2c-0.4-0.5-0.6-1.1-0.6-1.8c0-0.7,0.2-1.4,0.6-1.9c0.6-0.7,1.4-1.2,2.4-1.2h23
	c0.5,0,0.9-0.4,0.9-0.9v-0.4C65.5,22.9,65.1,22.5,64.6,22.5"/>
<rect x="-5" y="-2.4" class="st0" width="108" height="79.6"/>
<text transform="matrix(1 0 0 1 22.1387 66.5068)" class="st1 st2 st4">曬書區</text>
<path class="st1" d="M75.4,28.3c-1.3-3.1-3.4-6-5-9c-0.8-1.5-2.8-5.6-5-4.3c-1.1-1.3-2.5-2-4.5-1.5c-0.1-0.1-0.2-0.2-0.3-0.3
	c0,0-0.1-0.1-0.2-0.1c0-0.3-0.2-0.7-0.6-0.7c-1-0.1-2.3,0.4-3.2,0.7c-1.4,0.4-2.7,1-4,1.7c-1.5,0.9-3.1,2.4-3.4,4.1
	c-1.7-2.3-3.4-4.3-5.9-5.7c-1-0.6-3.8-2.1-4.9-1c-0.4,0.4-0.8,0.8-1.1,1.2c-1.4-1.5-3.1-0.3-4.4,1.2c-0.3-0.2-0.4-0.3-0.9-0.5
	c-0.2-0.1-0.5,0-0.6,0.2c-3.8,3.8-6.3,9.3-8.8,14.1c-0.5,0.9-1.2,2.8-0.1,3.6c1.3,0.9,3.3,1.1,4.8,1.5c3,0.8,6,2.5,8.8,3.8
	c3.1,1.4,6.3,2.7,9.4,4.2c1.6,0.8,3.2,1.9,5,1.1c3.3-1.4,6.4-2.9,9.8-4c4-1.3,8.1-2.5,11.9-4.1C75.3,33.2,76.8,31.6,75.4,28.3
	 M66.3,19.6c1.6,3.3,3.6,6.4,4.8,9.9c-1.9,0.2-3.8,0.3-5.7,1c-1.7,0.6-3.3,1.6-4.8,2.6c-2.6,1.6-5.3,3-8,4.5
	c1.8-1.3,3.5-2.8,5.2-4.2c1.5-1.2,2.9-2.4,4.6-3.3c1.1-0.6,2.3-0.8,3.5-1.1c0.2,0,1.1-0.3,1.6-0.4c0.1,0.1,0.3,0.2,0.5,0.1l0.2-0.1
	c0.4-0.2,0.7-0.6,0.4-1.1c-0.1-0.1-0.2-0.2-0.3-0.3c-0.9-2.3-2.3-4.6-3.4-6.9c-0.9-1.9-1.8-4-3.1-5.7C64.6,14.9,65.2,17.3,66.3,19.6
	 M50,20c0.7-2.1,2.1-3.4,4.1-4.4c1-0.5,2.2-0.9,3.3-1.2c0.7-0.2,1.4-0.3,2.1-0.6c0,0.1,0,0.1,0.1,0.1c1.6,2.4,2.9,4.8,4.1,7.4
	c0.9,1.9,1.7,4.3,3,6c-0.1,0-0.3,0.1-0.4,0.1c-2.4,0.6-4.4,1-6.5,2.5c-1.9,1.3-3.7,3-5.5,4.4c-1.5,1.2-3.1,2.4-4.6,3.8
	c0-0.1,0.1-0.3,0.1-0.4c0.1-0.3,0-0.5-0.2-0.7C50.2,33,51,22.9,50,20 M27.1,29.4c0.9-3.6,2.8-6.9,4.6-10.1c0.6-1,1.1-2.1,1.7-3.2
	c0.9-1.6,1.7-2.1,3.2-1.8c-1,1.5-1.7,3.2-2.4,4.9c-0.6,1.4-1.2,2.8-2,4.1c-0.6,1-1.5,2.1-1.6,3.3c-0.9,0.1-0.6,1.2,0,1.2
	c0,0,0,0,0,0c4.7,0.3,7.9,2.8,10.8,5.9C37,31.3,31.5,30.2,27.1,29.4 M31.9,26.5c2.4-3.4,3.6-7.5,5.6-11.1c0.2-0.4,1.3-2.5,2-2.3
	c1.1,0.2,2.2,0.6,3.2,1.2c2.4,1.3,3.9,3.2,5.6,5.4c0.2,0.2,0.4,0.2,0.6,0.2c0,0.1,0.1,0.1,0.1,0.2c-0.4-0.5-0.2,0.1-0.1,0.5
	c0.1,0.7,0.1,1.4,0.1,2c0,2-0.1,4-0.2,6c-0.1,3.1-0.1,6.3-0.5,9.4c-0.1,0.4-0.3,0.8-0.3,1.1C43.8,34.3,39.1,26.4,31.9,26.5"/>
</svg>
