<?xml version="1.0" encoding="utf-8"?>
<!-- Generator: Adobe Illustrator 22.0.1, SVG Export Plug-In . SVG Version: 6.00 Build 0)  -->
<svg version="1.1" id="圖層_1" xmlns="http://www.w3.org/2000/svg" xmlns:xlink="http://www.w3.org/1999/xlink" x="0px" y="0px"
	 viewBox="0 0 147 72" style="enable-background:new 0 0 147 72;" xml:space="preserve">
<style type="text/css">
	.st0{fill:#54BDD8;}
	.st1{fill:#FFFFFF;}
	.st2{font-family:'MicrosoftJhengHeiBold';}
	.st3{font-size:16px;}
</style>
<rect y="0.3" class="st0" width="147" height="71.5"/>
<text transform="matrix(1 0 0 1 33.7031 61.7109)" class="st1 st2 st3">好書新到貨</text>
<path class="st1" d="M97.8,11.6C97.8,11.6,97.8,11.6,97.8,11.6c0-0.1,0-0.2,0-0.2v0c0-0.1,0-0.2-0.1-0.2c0,0,0,0,0,0v0c0,0,0,0,0,0
	c0,0,0,0,0,0c-0.1-0.1-0.1-0.1-0.2-0.2c0,0,0,0,0,0c-0.1,0-0.1-0.1-0.2-0.1c0,0-0.1,0-0.1,0c-0.1,0-0.1,0-0.2,0c0,0-0.1,0-0.1,0
	c0,0,0,0-0.1,0l-46.4,9.6c-0.3,0.1-0.6,0.3-0.6,0.7c0,0.3,0.1,0.7,0.4,0.8l13.3,7l2.3,12.9c0,0,0,0,0,0c0,0.1,0,0.1,0,0.2
	c0,0,0,0.1,0,0.1c0,0.1,0,0.1,0.1,0.2c0,0,0,0,0,0c0,0,0,0,0,0c0,0,0,0,0,0c0,0,0.1,0.1,0.1,0.1c0,0,0,0,0,0c0,0,0,0,0,0
	c0.1,0,0.1,0.1,0.2,0.1c0,0,0,0,0.1,0c0.1,0,0.1,0,0.2,0h0c0,0,0,0,0,0c0,0,0,0,0,0c0.2,0,0.4-0.1,0.6-0.3l8.8-5.9l9.3,6
	c0.1,0.1,0.3,0.1,0.4,0.1c0.1,0,0.2,0,0.3,0c0.2-0.1,0.4-0.3,0.5-0.5l11.2-30.3C97.8,11.7,97.8,11.7,97.8,11.6
	C97.8,11.6,97.8,11.6,97.8,11.6C97.8,11.6,97.8,11.6,97.8,11.6 M88.5,16.7L69.4,30.8c0,0-0.1,0.1-0.1,0.1c0,0,0,0,0,0c0,0,0,0,0,0.1
	c0,0,0,0,0,0.1c0,0-0.1,0.1-0.1,0.2c0,0,0,0,0,0c0,0,0,0,0,0l-2.2,7.1l-1.7-9.7L88.5,16.7z M68.1,39.9l2.2-7.2l3.4,2.2l1,0.6
	l-3.3,2.2L68.1,39.9z M91.4,13.4L64.3,27.3l-11.3-6L91.4,13.4z M85.4,40.6l-12.3-8l-1.9-1.2l24.1-17.7L85.4,40.6z"/>
</svg>
