<?xml version="1.0" encoding="utf-8"?>
<!-- Generator: Adobe Illustrator 22.0.1, SVG Export Plug-In . SVG Version: 6.00 Build 0)  -->
<svg version="1.1" id="圖層_1" xmlns="http://www.w3.org/2000/svg" xmlns:xlink="http://www.w3.org/1999/xlink" x="0px" y="0px"
	 viewBox="0 0 147 72" style="enable-background:new 0 0 147 72;" xml:space="preserve">
<style type="text/css">
	.st0{fill:#5A99BF;}
	.st1{fill:#FFFFFF;}
	.st2{font-family:'MicrosoftJhengHeiBold';}
	.st3{font-size:16px;}
</style>
<rect y="0.2" class="st0" width="147" height="71.9"/>
<text transform="matrix(1 0 0 1 70.8213 44.0527)" class="st1 st2 st3">特賣會</text>
<path class="st1" d="M52.3,28.2c-0.1,0.4-0.5,0.7-1,0.7c-0.1,0-0.2,0-0.3,0l-8-2.2c-0.5-0.1-0.8-0.7-0.7-1.2
	c0.1-0.5,0.7-0.8,1.2-0.7l8,2.2C52.1,27.1,52.4,27.6,52.3,28.2 M38.1,52.4c-1.5,0-2.7,1.2-2.7,2.7c0,1.5,1.2,2.7,2.7,2.7
	c1.5,0,2.7-1.2,2.7-2.7C40.8,53.6,39.6,52.4,38.1,52.4 M54.4,52.4c-1.5,0-2.7,1.2-2.7,2.7c0,1.5,1.2,2.7,2.7,2.7
	c1.5,0,2.7-1.2,2.7-2.7C57,53.6,55.8,52.4,54.4,52.4 M60.7,30.6l-2.6,14.1c-0.1,0.5-0.5,0.8-1,0.8H35.7l0.6,2.6
	c0.1,0.6,0.7,1.1,1.4,1.1h18.1c0.6,0,1,0.4,1,1c0,0.5-0.4,1-1,1H37.6c-1.6,0-3-1.1-3.3-2.7l-0.8-3.8l-5.3-21.7h-3.5
	c-0.5,0-1-0.4-1-1c0-0.6,0.4-1,1-1H29c0.5,0,0.9,0.3,1,0.8l1.8,7.5l6,0l2.7-9.7v0l0.8-2.9c0.1-0.5,0.7-0.8,1.2-0.7l14.4,4.1
	c0.5,0.1,0.8,0.7,0.7,1.2c-0.1,0.4-0.5,0.7-1,0.7c-0.1,0-0.2,0-0.3,0l-0.2-0.1L55.9,23l0.2,0.1c0.5,0.1,0.8,0.7,0.7,1.2l-1.4,5.2
	l4.3,0c0.3,0,0.6,0.1,0.8,0.4C60.6,30,60.7,30.3,60.7,30.6 M42.9,18.4l-0.3,0.9L54,22.5l0.3-0.9L42.9,18.4z M40.3,29.4l12.6,0
	l0.6-2.2c0.1-0.3,0-0.5-0.1-0.8c-0.1-0.2-0.3-0.4-0.6-0.5l-9.7-2.7c-0.3-0.1-0.5,0-0.8,0.1c-0.2,0.1-0.4,0.3-0.5,0.6L40.3,29.4z"/>
</svg>
