<?xml version="1.0" encoding="utf-8"?>
<!-- Generator: Adobe Illustrator 22.0.1, SVG Export Plug-In . SVG Version: 6.00 Build 0)  -->
<svg version="1.1" id="圖層_1" xmlns="http://www.w3.org/2000/svg" xmlns:xlink="http://www.w3.org/1999/xlink" x="0px" y="0px"
	 viewBox="0 0 147 72" style="enable-background:new 0 0 147 72;" xml:space="preserve">
<style type="text/css">
	.st0{fill:#5A99BF;}
	.st1{fill:#FFFFFF;}
	.st2{font-family:'MicrosoftJhengHeiBold';}
	.st3{font-size:16px;}
</style>
<rect x="0" y="0.5" class="st0" width="147" height="71.9"/>
<text transform="matrix(1 0 0 1 69.75 44.8359)" class="st1 st2 st3">新到貨</text>
<path class="st1" d="M28,40.2c2.7-3.9,4.3-6.4,5.4-8.2c-4.4,0.4-8.7,5.9-8.7,5.9l2.9,2.9C27.8,40.6,27.9,40.3,28,40.2"/>
<path class="st1" d="M35,51c-0.5,0.2-1,0.4-1.5,0.6c-1.4,0.5-2.8,0.8-4.2,1c-0.6,0.1-1.2,0.2-1.8,0.2c0-0.1,0-0.2,0-0.2
	c0.1-1.5,0.3-2.9,0.7-4.3c0.2-0.7,0.4-1.4,0.6-2c0.1-0.4,0.3-0.8,0.5-1.2L29,44.7c-0.7,0.5-1.3,1.1-1.9,1.8c-0.8,1-1.4,2.2-1.8,3.4
	c-0.4,1.3-0.7,2.7-0.7,4.1c0,0.2,0,0.4,0,0.6c0,0.2,0.1,0.5,0.3,0.7c0.2,0.2,0.4,0.3,0.6,0.4c0.2,0.1,0.4,0.1,0.6,0.1
	c1.3,0,2.5-0.2,3.7-0.6c2.2-0.7,4.4-1.9,5.7-3.8l-0.3-0.3C35.2,51,35.1,51,35,51"/>
<path class="st1" d="M59.4,20.9L59.4,20.9c-0.2-0.2-0.5-0.4-0.9-0.4h0c-3.9,0.1-13.6,0.8-18.7,5.9c-2.3,2.3-3.1,3.5-4.7,6.2
	c-1.2,1.9-2.8,4.5-5.8,8.8c-0.3,0.5-0.3,1.1,0.1,1.6l7.8,7.8c0.2,0.2,0.5,0.4,0.9,0.4c0.2,0,0.5-0.1,0.7-0.2c4.3-3,6.9-4.6,8.8-5.8
	c2.7-1.7,3.9-2.4,6.2-4.7c5.1-5.1,5.9-14.8,5.9-18.7C59.7,21.4,59.6,21.1,59.4,20.9 M50.3,35.6c-1.6,1.6-4.1,1.6-5.7,0
	c-1.6-1.6-1.6-4.1,0-5.7c1.6-1.6,4.1-1.6,5.7,0C51.9,31.5,51.9,34.1,50.3,35.6"/>
</svg>
