<?xml version="1.0" encoding="utf-8"?>
<!-- Generator: Adobe Illustrator 22.0.1, SVG Export Plug-In . SVG Version: 6.00 Build 0)  -->
<svg version="1.1" id="圖層_1" xmlns="http://www.w3.org/2000/svg" xmlns:xlink="http://www.w3.org/1999/xlink" x="0px" y="0px"
	 viewBox="0 0 28 36" style="enable-background:new 0 0 28 36;" xml:space="preserve">
<style type="text/css">
	.st0{fill:#71304E;}
</style>
<g>
	<path class="st0" d="M24.9,29.5c0-0.5-0.2-1-0.6-1.3c-0.4-0.4-0.8-0.5-1.4-0.5H1.9v3.7H23C24,31.3,24.9,30.5,24.9,29.5"/>
	<path class="st0" d="M0.9,34.3H23c2.8,0,5-2.1,5-4.8c0-2.7-2.2-4.8-5-4.8H0.9C0.4,24.6,0,25,0,25.5v0.3c0,0.5,0.4,0.8,0.9,0.8H23
		c0.9,0,1.8,0.4,2.3,1.1c0.4,0.5,0.6,1.1,0.6,1.8c0,0.6-0.2,1.2-0.6,1.7c-0.5,0.7-1.4,1.1-2.4,1.1H0.9c-0.5,0-0.9,0.4-0.9,0.8v0.3
		C0,33.9,0.4,34.3,0.9,34.3"/>
	<path class="st0" d="M9.7,23.1c0.2,0,7.3,0,7.5,0c3.3-0.4,5.8-3.8,5.8-7.9c0-4.4-2.8-8-6.4-8c-0.8,0-1.5,0.2-2.1,0.5
		c-0.2,0.1-0.4,0.2-0.7,0.2c0-0.2,0-0.3,0-0.5c0.1-1.4,0.9-2.9,2.1-3.6c0.3-0.2,0.5-0.6,0.3-1c-0.2-0.3-0.7-0.5-1-0.3
		c-1.7,1.2-2.8,3.2-2.8,5.2c-0.7-0.3-1.4-0.4-2.1-0.4c-3.5,0-6.4,3.6-6.4,8C3.9,19.4,6.4,22.8,9.7,23.1"/>
	<path class="st0" d="M10.6,6.4c0.6,0.1,1.1-0.4,1.1-1.1C11.5,3.9,10.7,1.5,7,1C6.4,0.9,5.9,1.4,5.9,2.1C6.1,3.5,6.9,6,10.6,6.4"/>
</g>
</svg>
