<?xml version="1.0" encoding="utf-8"?>
<!-- Generator: Adobe Illustrator 22.1.0, SVG Export Plug-In . SVG Version: 6.00 Build 0)  -->
<svg version="1.1" id="Capa_1" xmlns="http://www.w3.org/2000/svg" xmlns:xlink="http://www.w3.org/1999/xlink" x="0px" y="0px"
	 viewBox="0 0 29.8 29.8" style="enable-background:new 0 0 29.8 29.8;" xml:space="preserve">
<style type="text/css">
	.st0{fill:#FFFFFF;}
	.st1{fill:#010002;}
</style>
<g>
	<path class="st0" d="M70.3-1.6h-0.4l-2.8-5c-0.1-0.2-0.3-0.3-0.5-0.3h-3.3l0.7-3.5c0.1-0.4-0.2-0.8-0.6-0.8l-17.6,0
		c-0.5,0-0.8,0.4-0.8,0.8s0.4,0.8,0.8,0.8h9.7c0.4,0.1,0.7,0.4,0.7,0.8c0,0.4-0.3,0.8-0.8,0.8H42.9c-0.5,0-0.8,0.4-0.8,0.8
		c0,0.5,0.4,0.8,0.8,0.8h12.3c0.4,0.1,0.7,0.4,0.7,0.8c0,0.4-0.3,0.8-0.7,0.8H44.1c-0.5,0-0.8,0.4-0.8,0.8S43.7-3,44.1-3h2.6
		l-1.4,7.2C45.2,4.6,45.5,5,45.9,5h1.2c-0.2,1.7,0.9,3.1,2.7,3.1c1.8,0,3.5-1.4,3.9-3.1h6.4h1.8c-0.2,1.7,0.9,3.1,2.7,3.1
		s3.5-1.4,3.9-3.1H69h0.7c0.4,0,0.8-0.3,0.9-0.8l0.2-1.3c0.1-0.4-0.2-0.7-0.5-0.8l0.6-2.9C71-1.2,70.7-1.6,70.3-1.6z M52.2,4.8
		c-0.2,1-1.1,1.8-2.1,1.8s-1.6-0.8-1.4-1.8c0.2-1,1.1-1.8,2.1-1.8C51.8,3,52.4,3.8,52.2,4.8z M67,4.8c-0.2,1-1.1,1.8-2.1,1.8
		c-1,0-1.6-0.8-1.4-1.8c0.2-1,1.1-1.8,2.1-1.8C66.6,3,67.2,3.8,67,4.8z M62.1-1.6l0.7-3.8h3l2.1,3.8H62.1z"/>
</g>
<g>
	<g>
		<path class="st0" d="M-8.1-43.8v-0.6c0-0.7-0.6-1.3-1.3-1.3h-2.1c0.2-0.3,0.3-0.7,0.3-1.1c0-1.3-1.1-2.4-2.4-2.4s-2.4,1.1-2.4,2.4
			c0,0.4,0.1,0.8,0.3,1.1h-1.7c-0.7,0-1.3,0.6-1.3,1.3v0.6h-2.9c-1.1,0-1.9,0.9-1.9,1.9v19.2c0,1.1,0.9,1.9,1.9,1.9h16.3
			c1.1,0,1.9-0.9,1.9-1.9v-19.2c0-1.1-0.9-1.9-1.9-1.9C-5.3-43.8-8.1-43.8-8.1-43.8z M-15.1-46.8c0-0.8,0.6-1.4,1.4-1.4
			c0.8,0,1.4,0.6,1.4,1.4c0,0.4-0.2,0.8-0.5,1.1h-1.8C-14.8-45.9-15.1-46.3-15.1-46.8z M-5.3-23.8c0,0.7-0.5,1.2-1.2,1.2h-13.9
			c-0.7,0-1.2-0.5-1.2-1.2v-16.8c0-0.7,0.5-1.2,1.2-1.2h1.7c0,0.5,0.4,1,1,1h8.7c0.5,0,1-0.4,1-1h1.7c0.7,0,1.2,0.5,1.2,1.2V-23.8
			L-5.3-23.8z"/>
		<circle class="st0" cx="-18" cy="-37.5" r="1.7"/>
		<path class="st0" d="M-8.4-38.4h-5.8c-0.5,0-1,0.4-1,1c0,0.5,0.4,1,1,1h5.8c0.5,0,1-0.4,1-1C-7.4-38-7.9-38.4-8.4-38.4z"/>
		<circle class="st0" cx="-18" cy="-32.7" r="1.7"/>
		<path class="st0" d="M-8.4-33.7h-5.8c-0.5,0-1,0.4-1,1c0,0.5,0.4,1,1,1h5.8c0.5,0,1-0.4,1-1S-7.9-33.7-8.4-33.7z"/>
		<circle class="st0" cx="-18" cy="-27.6" r="1.7"/>
		<path class="st0" d="M-8.4-28.5h-5.8c-0.5,0-1,0.4-1,1s0.4,1,1,1h5.8c0.5,0,1-0.4,1-1C-7.4-28.1-7.9-28.5-8.4-28.5z"/>
	</g>
</g>
<path class="st0" d="M42.1-23.4c0,1.2,1,2.1,2.1,2.1c1.2,0,2.1-1,2.1-2.1c0-1.2-1-2.1-2.1-2.1c-0.5,0-1.1,0.2-1.5,0.6
	C42.3-24.5,42.1-24,42.1-23.4"/>
<path class="st0" d="M48.3-42.5c-0.2-0.2-0.5-0.3-0.8-0.3H27.2c0-0.1,0-0.2-0.1-0.4c-0.1-0.2-0.1-0.4-0.1-0.5c0-0.2-0.1-0.3-0.1-0.4
	c0-0.2-0.1-0.3-0.2-0.4c-0.1-0.1-0.2-0.2-0.3-0.3C26.2-45,26.1-45,25.9-45h-4.3c-0.6,0-1.1,0.5-1.1,1.1s0.5,1.1,1.1,1.1H25L28-29
	l-0.3,0.6c-0.2,0.4-0.4,0.7-0.5,1.1c-0.1,0.2-0.2,0.4-0.2,0.7c0,0.6,0.5,1,1.1,1.1h17.3c0.6,0,1-0.5,1.1-1.1c0-0.3-0.1-0.6-0.3-0.8
	c-0.2-0.2-0.5-0.3-0.8-0.3H29.8c0.2-0.3,0.3-0.7,0.4-1.1c0-0.1,0-0.2,0-0.4c0-0.1-0.1-0.3-0.1-0.4s-0.1-0.3-0.1-0.4L47.7-32
	c0.5-0.1,0.9-0.5,1-1.1v-8.7C48.6-42.1,48.5-42.3,48.3-42.5"/>
<path class="st0" d="M27-23.4c0,1.2,1,2.1,2.1,2.1c1.2,0,2.1-1,2.1-2.1c0-1.2-1-2.1-2.1-2.1c-0.5,0-1.1,0.2-1.5,0.6
	C27.2-24.5,27-24,27-23.4"/>
<g>
	<path class="st1" d="M28.3,6.2l-0.8-0.8c-0.9-0.9-2.3-0.9-3.2,0L10.6,19l-4.8-4.8c-0.9-0.9-2.3-0.9-3.2,0L1.8,15
		c-0.9,0.9-0.9,2.3,0,3.2L9,25.5c0.9,0.9,2.3,0.9,3.2,0l16-16C29.2,8.5,29.2,7.1,28.3,6.2z"/>
</g>
</svg>
