<svg xmlns="http://www.w3.org/2000/svg" viewBox="0 0 28.1 23.68"><defs><style>.cls-1{fill:#fff;}</style></defs><title>資產 6</title><g id="圖層_2" data-name="圖層 2"><g id="Capa_1" data-name="Capa 1"><path class="cls-1" d="M21.59,21.6a2.11,2.11,0,1,0,2.08-2.13,2.1,2.1,0,0,0-2.08,2.13"/><path class="cls-1" d="M27.75,2.48A1.06,1.06,0,0,0,27,2.16H6.72a1.25,1.25,0,0,0-.07-.43,3.63,3.63,0,0,1-.1-.5A2.2,2.2,0,0,0,6.43.79,1.68,1.68,0,0,0,6.21.37.84.84,0,0,0,5.87.12,1,1,0,0,0,5.4,0H1.08a1.08,1.08,0,0,0,0,2.16H4.51l3,13.89-.35.64a8.7,8.7,0,0,0-.49,1,1.72,1.72,0,0,0-.19.67,1.12,1.12,0,0,0,1,1.05H24.79a1.11,1.11,0,0,0,1.05-1.05,1,1,0,0,0-.32-.76,1.05,1.05,0,0,0-.76-.32H9.29a3.07,3.07,0,0,0,.41-1,2.29,2.29,0,0,0,0-.37,2,2,0,0,0-.1-.44,3.74,3.74,0,0,1-.08-.37l17.62-2a1.12,1.12,0,0,0,1-1.06V3.24a1.05,1.05,0,0,0-.32-.76"/><path class="cls-1" d="M6.47,21.6a2.11,2.11,0,1,0,2.08-2.13A2.1,2.1,0,0,0,6.47,21.6"/></g></g></svg>