<svg xmlns="http://www.w3.org/2000/svg" viewBox="0 0 28.81 19.24"><defs><style>.cls-1{fill:#fff;}</style></defs><title>資產 4</title><g id="圖層_2" data-name="圖層 2"><g id="Capa_1" data-name="Capa 1"><path class="cls-1" d="M28.18,9.6h-.45l-2.83-5a.61.61,0,0,0-.55-.3H21L21.68.76A.61.61,0,0,0,21.06,0H3.44a.82.82,0,1,0,0,1.64h9.7a.81.81,0,0,1,.68.8.82.82,0,0,1-.75.82H.82a.82.82,0,0,0,0,1.64H13.1a.82.82,0,0,1,0,1.63H2A.82.82,0,1,0,2,8.18H4.59L3.24,15.36a.61.61,0,0,0,.61.76H5.06a2.65,2.65,0,0,0,2.71,3.12,4.18,4.18,0,0,0,3.87-3.12h8.19a2.65,2.65,0,0,0,2.71,3.12,4.18,4.18,0,0,0,3.87-3.12h1.21a1,1,0,0,0,.9-.76l.25-1.3a.61.61,0,0,0-.53-.75l.55-3A.61.61,0,0,0,28.18,9.6Zm-18,6.34a2.25,2.25,0,0,1-2.11,1.78,1.44,1.44,0,0,1-1.44-1.78,2.24,2.24,0,0,1,2.11-1.77A1.42,1.42,0,0,1,10.16,15.94Zm14.77,0a2.25,2.25,0,0,1-2.11,1.78,1.44,1.44,0,0,1-1.44-1.78,2.24,2.24,0,0,1,2.11-1.77A1.42,1.42,0,0,1,24.93,15.94ZM20,9.6l.72-3.82h2.95L25.83,9.6Z"/></g></g></svg>