<svg xmlns="http://www.w3.org/2000/svg" viewBox="0 0 20.23 28.5"><defs><style>.cls-1{fill:#fff;}</style></defs><title>資產 8</title><g id="圖層_2" data-name="圖層 2"><g id="Capa_1" data-name="Capa 1"><path class="cls-1" d="M15.42,5.4V4.78a1.28,1.28,0,0,0-1.28-1.29H12a2.29,2.29,0,0,0,.28-1.11A2.38,2.38,0,1,0,7.82,3.49H6.1A1.29,1.29,0,0,0,4.81,4.78V5.4H2A2,2,0,0,0,0,7.35v19.2A2,2,0,0,0,2,28.5H18.29a1.94,1.94,0,0,0,1.94-1.95V7.35A1.94,1.94,0,0,0,18.29,5.4Zm-6.91-3a1.42,1.42,0,1,1,2.3,1.11H9A1.46,1.46,0,0,1,8.51,2.38Zm9.78,23a1.2,1.2,0,0,1-1.2,1.2H3.15A1.2,1.2,0,0,1,2,25.39V8.55a1.19,1.19,0,0,1,1.2-1.2H4.81a1,1,0,0,0,1,1h8.71a.94.94,0,0,0,.95-1h1.67a1.2,1.2,0,0,1,1.2,1.2V25.39Z"/><circle class="cls-1" cx="5.54" cy="11.67" r="1.69"/><path class="cls-1" d="M15.17,10.73H9.4a1,1,0,1,0,0,1.91h5.77a1,1,0,1,0,0-1.91Z"/><circle class="cls-1" cx="5.54" cy="16.47" r="1.69"/><path class="cls-1" d="M15.17,15.5H9.4a1,1,0,0,0,0,1.95h5.77a1,1,0,0,0,0-1.95Z"/><circle class="cls-1" cx="5.54" cy="21.6" r="1.69"/><path class="cls-1" d="M15.17,20.63H9.4a1,1,0,0,0,0,1.95h5.77a1,1,0,0,0,0-1.95Z"/></g></g></svg>