<?xml version="1.0" encoding="utf-8"?>
<!-- Generator: Adobe Illustrator 22.1.0, SVG Export Plug-In . SVG Version: 6.00 Build 0)  -->
<svg version="1.1" xmlns="http://www.w3.org/2000/svg" xmlns:xlink="http://www.w3.org/1999/xlink" x="0px" y="0px"
	 viewBox="0 0 512 512" style="enable-background:new 0 0 512 512;" xml:space="preserve">
<style type="text/css">
	.st0{fill:#FFFFFF;}
</style>
<g id="圖層_1">
	<g id="圖層_2_1_">
		<g id="圖層_1-2">
			<path class="st0" d="M477,216.4c0-86.6-25.8-156.9-56.7-157.4H385c-62.1,42.8-132.2,72.7-206.1,87.9c-4.1,23-6.1,46.2-5.9,69.6
				c-0.1,23.4,1.8,46.8,5.9,69.8c73.9,15.1,144,45,206.1,87.9h35.3C451.8,374.1,477,303.2,477,216.4 M408.5,350.1
				c-4.3-0.8-8.1-3.2-10.6-6.7c-6.7-7.9-11.9-17-15.2-26.8c-11-32.1-16.4-65.8-15.7-99.7c-0.6-33.8,4.7-67.5,15.7-99.4
				c3.3-10.1,8.5-19.4,15.2-27.6c2.1-2.3,6.4-6.7,10.6-6.7c4.1,0,8.5,4.4,10.6,6.7c6.7,8.2,11.9,17.5,15.2,27.6
				c11,32,16.3,65.6,15.7,99.4c0.6,33.9-4.7,67.6-15.7,99.7c-3.4,9.5-8.6,18.2-15.2,25.8c-2.5,3.5-6.3,5.9-10.6,6.7 M144.1,216.4
				c-0.1-21.5,1.5-42.9,4.6-64.2c-20,2.9-40.3,4.4-60.5,4.4H59.4l-24,41v37.9l24,41h28.9c20.3,0,40.5,1.4,60.5,4.4
				C145.6,259.5,144.1,238,144.1,216.4 M194.1,308.4l-55.6-10.6l35.3,138.6c0.9,6.3,6.7,10.8,13,9.9c1.1-0.1,2.2-0.5,3.2-0.9
				l51.5-20.4c6.1-2.3,9.3-9.1,7-15.2c-0.2-0.6-0.5-1.2-0.8-1.8L194.1,308.4z M408.5,267.9c-1.7-0.3-3.1-1.2-4.1-2.6
				c-2.5-3.1-4.5-6.6-5.9-10.3c-4.2-12.4-6.2-25.5-5.9-38.6c-0.2-13,1.8-26,5.9-38.4c1.5-3.8,3.5-7.3,5.9-10.6c0,0,2.6-2.6,4.1-2.6
				c1.5,0,3.1,1.8,4.1,2.6c2.5,3.2,4.4,6.8,5.9,10.6c4.2,12.4,6.2,25.3,5.9,38.4c0.3,13.1-1.7,26.2-5.9,38.6
				c-1.4,3.7-3.4,7.2-5.9,10.3C412.6,265.4,410,267.9,408.5,267.9"/>
		</g>
	</g>
</g>
<g id="圖層_2">
</g>
</svg>
