<?xml version="1.0" encoding="utf-8"?>
<!-- Generator: Adobe Illustrator 22.1.0, SVG Export Plug-In . SVG Version: 6.00 Build 0)  -->
<svg version="1.1" xmlns="http://www.w3.org/2000/svg" xmlns:xlink="http://www.w3.org/1999/xlink" x="0px" y="0px"
	 viewBox="0 0 512 512" style="enable-background:new 0 0 512 512;" xml:space="preserve">
<style type="text/css">
	.st0{fill:#FFFFFF;}
</style>
<g id="圖層_1">
	<path class="st0" d="M311.2,279H477v124.3c0,22.9-18.6,41.4-41.4,41.4H76.4c-22.9,0-41.4-18.6-41.4-41.4V279h165.8v17.3
		c0,5.7,4.6,10.4,10.4,10.4h89.8c5.7,0,10.4-4.6,10.4-10.4V279z M477,182.3v69.1H35v-69.1c0-22.9,18.6-41.4,41.4-41.4h69.1V99.4
		c0-22.9,18.6-41.4,41.4-41.4h138.1c22.9,0,41.4,18.6,41.4,41.4v41.4h69.1C458.4,140.9,477,159.4,477,182.3z M311.2,113.2H200.8
		v27.6h110.5V113.2z"/>
</g>
<g id="圖層_2">
</g>
</svg>
