<?xml version="1.0" encoding="utf-8"?>
<!-- Generator: Adobe Illustrator 22.1.0, SVG Export Plug-In . SVG Version: 6.00 Build 0)  -->
<svg version="1.1" xmlns="http://www.w3.org/2000/svg" xmlns:xlink="http://www.w3.org/1999/xlink" x="0px" y="0px"
	 viewBox="0 0 512 512" style="enable-background:new 0 0 512 512;" xml:space="preserve">
<style type="text/css">
	.st0{fill:#FFFFFF;}
</style>
<g id="圖層_1">
	<path class="st0" d="M255.5,255.6c63.9,0,115.7-51.8,115.7-115.7S319.4,24.1,255.5,24.1S139.8,75.9,139.8,139.9
		S191.6,255.6,255.5,255.6z M336.5,284.5h-15.1c-20.1,9.2-42.4,14.5-65.9,14.5s-45.7-5.2-65.9-14.5h-15.1
		C107.4,284.5,53,338.9,53,406v37.6c0,24,19.4,43.4,43.4,43.4h318.2c24,0,43.4-19.4,43.4-43.4V406
		C458,338.9,403.6,284.5,336.5,284.5z"/>
</g>
<g id="圖層_2">
</g>
</svg>
