<?xml version="1.0" encoding="utf-8"?>
<!-- Generator: Adobe Illustrator 22.1.0, SVG Export Plug-In . SVG Version: 6.00 Build 0)  -->
<svg version="1.1" xmlns="http://www.w3.org/2000/svg" xmlns:xlink="http://www.w3.org/1999/xlink" x="0px" y="0px"
	 viewBox="0 0 512 512" style="enable-background:new 0 0 512 512;" xml:space="preserve">
<style type="text/css">
	.st0{fill:#FFFFFF;}
</style>
<g id="圖層_1">
	<g>
		<path class="st0" d="M474.4,199.1c-1.7-1.7-3.9-2.6-6.7-2.6H340.6c17.9,0,33.2-6.3,45.8-18.9c12.6-12.6,18.9-27.9,18.9-45.8
			s-6.3-33.2-18.9-45.8C373.8,73.3,358.5,67,340.6,67c-20.6,0-36.8,7.4-48.6,22.3l-37,47.7l-37-47.7C206.2,74.4,190.1,67,169.4,67
			c-17.9,0-33.2,6.3-45.8,18.9c-12.6,12.6-18.9,27.9-18.9,45.8s6.3,33.2,18.9,45.8c12.6,12.6,27.9,18.9,45.8,18.9H42.2
			c-2.7,0-4.9,0.9-6.6,2.6c-1.7,1.7-2.6,4-2.6,6.6v92.5c0,2.7,0.9,4.9,2.6,6.6c1.7,1.7,4,2.6,6.6,2.6H70v120.3
			c0,7.7,2.7,14.3,8.1,19.7c5.4,5.4,11.9,8.1,19.7,8.1h314.5c7.7,0,14.3-2.7,19.7-8.1c5.4-5.4,8.1-11.9,8.1-19.7V307.5h27.7
			c2.7,0,4.9-0.9,6.7-2.6s2.6-3.9,2.6-6.6v-92.5C477,203.1,476.1,200.8,474.4,199.1z M320.6,113c5-6,11.7-9,19.9-9
			c7.7,0,14.3,2.7,19.7,8.1c5.4,5.4,8.1,11.9,8.1,19.7s-2.7,14.3-8.1,19.7c-5.4,5.4-11.9,8.1-19.7,8.1h-56.1L320.6,113z
			 M169.4,159.5c-7.7,0-14.3-2.7-19.7-8.1c-5.4-5.4-8.1-11.9-8.1-19.7s2.7-14.3,8.1-19.7c5.4-5.4,12-8.1,19.7-8.1
			c8.3,0,14.9,3,19.9,9l36.4,46.5L169.4,159.5L169.4,159.5z M301.3,252v135.3v16.2c0,4.8-1.7,8.5-5.2,11.1
			c-3.5,2.6-7.9,3.9-13.3,3.9h-55.5c-5.4,0-9.8-1.3-13.3-3.9c-3.5-2.6-5.2-6.3-5.2-11.1v-16.2V252v-55.5h92.5V252z"/>
	</g>
</g>
<g id="圖層_2">
</g>
</svg>
