<svg xmlns="http://www.w3.org/2000/svg" viewBox="0 0 20.19 20.19"><defs><style>.cls-1{fill:#dc4e41;}</style></defs><title>資產 6</title><g id="圖層_2" data-name="圖層 2"><g id="圖層_5" data-name="圖層 5"><path class="cls-1" d="M9.29,7c0-1-.61-3-2.12-3-.61,0-1.31.4-1.31,1.71s.6,2.93,2,2.93A1.54,1.54,0,0,0,9.29,7Zm-.61,4.94h-.3a7.15,7.15,0,0,0-1.82.31,1.83,1.83,0,0,0-1.51,1.71c0,1.11,1,2.22,3,2.22a2.21,2.21,0,0,0,2.43-2c0-.7-.5-1.21-1.82-2.22ZM18.17,0H2A2,2,0,0,0,0,2V18.17a2,2,0,0,0,2,2H18.17a2,2,0,0,0,2-2V2a2,2,0,0,0-2-2Zm-11,17.37c-2.83,0-4.14-1.62-4.14-3a2.66,2.66,0,0,1,1.52-2.42A6.85,6.85,0,0,1,7.67,11a1.33,1.33,0,0,1-.3-1,.92.92,0,0,1,.1-.51h-.4a3.09,3.09,0,0,1-3.24-3C3.83,4.75,5.15,2.82,8,2.82h4.24l-.31.31-.71.7-.09.11H10.4a3.05,3.05,0,0,1,.91,2.22A3,3,0,0,1,9.69,8.88a.87.87,0,0,0-.4.71.66.66,0,0,0,.4.6,2.06,2.06,0,0,0,.5.31c.81.61,1.93,1.31,1.93,2.93,0,1.81-1.32,3.94-4.95,3.94Zm10-7.27h-2v2h-1v-2h-2v-1h2v-2h1v2h2Z"/></g></g></svg>