<?xml version="1.0" encoding="utf-8"?>
<!-- Generator: Adobe Illustrator 22.1.0, SVG Export Plug-In . SVG Version: 6.00 Build 0)  -->
<svg version="1.1" xmlns="http://www.w3.org/2000/svg" xmlns:xlink="http://www.w3.org/1999/xlink" x="0px" y="0px"
	 viewBox="0 0 512 512" style="enable-background:new 0 0 512 512;" xml:space="preserve">
<style type="text/css">
	.st0{fill:#FFFFFF;}
</style>
<g id="圖層_1">
	<path class="st0" d="M415.3,227.1h-21.7v-65C393.7,86.5,332.1,25,256.5,25S119.3,86.5,119.3,162.2v65H97.7
		c-23.9,0-43.3,19.4-43.3,43.3v173.2c0,23.9,19.4,43.3,43.3,43.3h317.6c23.9,0,43.3-19.4,43.3-43.3V270.4
		C458.6,246.5,439.2,227.1,415.3,227.1z M321.5,227.1H191.5v-65c0-35.8,29.1-65,65-65s65,29.1,65,65V227.1z"/>
</g>
<g id="圖層_2">
</g>
</svg>
