<svg xmlns="http://www.w3.org/2000/svg" viewBox="0 0 20.19 20.19"><defs><style>.cls-1{fill:#50abf1;}.cls-2{fill:#fff;}</style></defs><title>資產 5</title><g id="圖層_2" data-name="圖層 2"><g id="圖層_5" data-name="圖層 5"><path class="cls-1" d="M20.19,2V18.17a2,2,0,0,1-1.92,2H1.92a2,2,0,0,1-1.92-2V2A2,2,0,0,1,2,0H18.17A2,2,0,0,1,20.19,2Z"/><path class="cls-2" d="M17.52,5.71a6.86,6.86,0,0,1-1.73.45,3.26,3.26,0,0,0,1.33-1.69,10.89,10.89,0,0,1-1.48.62l-.45.13A3,3,0,0,0,9.92,7.31,2.66,2.66,0,0,0,10,8,9.23,9.23,0,0,1,3.73,4.83s-1.45,2,.87,4a3.15,3.15,0,0,1-1.32-.4,2.91,2.91,0,0,0,2.42,3,2.78,2.78,0,0,1-1.35.06,3,3,0,0,0,2.8,2.13A5.86,5.86,0,0,1,2.68,15,8.69,8.69,0,0,0,16,7.62c0-.12,0-.24,0-.35A6.84,6.84,0,0,0,17.52,5.71Z"/></g></g></svg>