<svg xmlns="http://www.w3.org/2000/svg" viewBox="0 0 20.19 20.19"><defs><style>.cls-1{fill:#475993;}</style></defs><title>資產 4</title><g id="圖層_2" data-name="圖層 2"><g id="圖層_5" data-name="圖層 5"><path class="cls-1" d="M17.47,0H2.72A2.72,2.72,0,0,0,0,2.72V17.47a2.72,2.72,0,0,0,2.72,2.72H10L10,13H8.13a.45.45,0,0,1-.44-.45V10.21a.44.44,0,0,1,.44-.44H10V7.52a3.68,3.68,0,0,1,3.92-4h1.91a.45.45,0,0,1,.45.44v2a.45.45,0,0,1-.45.45H14.65c-1.26,0-1.51.6-1.51,1.48V9.77h2.78a.44.44,0,0,1,.44.49l-.27,2.33a.45.45,0,0,1-.44.39h-2.5v7.21h4.33a2.72,2.72,0,0,0,2.72-2.72V2.72A2.72,2.72,0,0,0,17.47,0Z"/></g></g></svg>