<?xml version="1.0" encoding="utf-8"?>
<!-- Generator: Adobe Illustrator 22.1.0, SVG Export Plug-In . SVG Version: 6.00 Build 0)  -->
<svg version="1.1" xmlns="http://www.w3.org/2000/svg" xmlns:xlink="http://www.w3.org/1999/xlink" x="0px" y="0px"
	 viewBox="0 0 512 512" style="enable-background:new 0 0 512 512;" xml:space="preserve">
<style type="text/css">
	.st0{fill:#FFFFFF;}
</style>
<g id="圖層_1">
	<path class="st0" d="M466,223.4h-44.2v-44.2c0-6.1-5-11-11-11h-22.1c-6.1,0-11.1,5-11.1,11v44.2h-44.2c-6.1,0-11.1,5-11.1,11v22.1
		c0,6.1,5,11,11.1,11h44.2v44.2c0,6.1,5,11,11.1,11h22.1c6.1,0,11-5,11-11v-44.2H466c6.1,0,11-5,11-11v-22.1
		C477,228.3,472,223.4,466,223.4z M189.7,256.5c48.8,0,88.4-39.6,88.4-88.4s-39.6-88.4-88.4-88.4s-88.4,39.6-88.4,88.4
		S140.9,256.5,189.7,256.5z M251.6,278.6H240c-15.3,7-32.4,11-50.3,11s-34.9-4-50.3-11h-11.5c-51.2,0-92.8,41.6-92.8,92.8v28.7
		c0,18.3,14.8,33.1,33.2,33.1h243.1c18.3,0,33.1-14.8,33.1-33.1v-28.7C344.4,320.2,302.8,278.6,251.6,278.6z"/>
</g>
<g id="圖層_2">
</g>
</svg>
