<?xml version="1.0" encoding="utf-8"?>
<!-- Generator: Adobe Illustrator 22.1.0, SVG Export Plug-In . SVG Version: 6.00 Build 0)  -->
<svg version="1.1" xmlns="http://www.w3.org/2000/svg" xmlns:xlink="http://www.w3.org/1999/xlink" x="0px" y="0px"
	 viewBox="0 0 512 512" style="enable-background:new 0 0 512 512;" xml:space="preserve">
<style type="text/css">
	.st0{fill:#FFFFFF;}
</style>
<g id="圖層_1">
	<g>
		<g>
			<path class="st0" d="M373.8,413.8c0,9.4,3.3,17.4,10,24.1c6.7,6.7,14.7,10,24.1,10c9.4,0,17.4-3.3,24.1-10
				c6.7-6.7,10-14.7,10-24.1s-3.3-17.4-10-24.1c-6.7-6.7-14.7-10-24.1-10c-9.4,0-17.4,3.3-24.1,10
				C377.1,396.4,373.8,404.4,373.8,413.8z"/>
			<path class="st0" d="M470.9,112.2c-3.4-3.4-7.4-5.1-12-5.1H139.2c-0.2-1.2-0.6-3.5-1.2-6.8c-0.6-3.3-1.1-5.9-1.5-7.9
				c-0.4-1.9-1-4.3-2-7.1c-1-2.8-2.1-4.9-3.5-6.5c-1.3-1.6-3.1-3-5.3-4.1c-2.2-1.1-4.7-1.7-7.6-1.7H50c-4.6,0-8.6,1.7-12,5.1
				c-3.4,3.4-5.1,7.4-5.1,12c0,4.6,1.7,8.6,5.1,12c3.4,3.4,7.4,5.1,12,5.1h54.3l47.1,219.1c-0.4,0.7-2.2,4.1-5.5,10.1
				c-3.3,6-5.9,11.3-7.9,15.8c-2,4.5-2.9,8-2.9,10.5c0,4.6,1.7,8.6,5.1,12c3.4,3.4,7.4,5.1,12,5.1h17h238.5h17c4.6,0,8.6-1.7,12-5.1
				c3.4-3.4,5.1-7.4,5.1-12s-1.7-8.6-5.1-12c-3.4-3.4-7.4-5.1-12-5.1H180c4.3-8.5,6.4-14.2,6.4-17c0-1.8-0.2-3.7-0.7-5.9
				c-0.4-2.1-1-4.5-1.6-7.1c-0.6-2.6-1-4.5-1.2-5.7l277.9-32.5c4.4-0.5,8.1-2.4,10.9-5.7c2.8-3.3,4.3-7.1,4.3-11.3V124.2
				C476,119.6,474.3,115.6,470.9,112.2z"/>
			<path class="st0" d="M135.2,413.8c0,9.4,3.3,17.4,10,24.1c6.7,6.7,14.7,10,24.1,10c9.4,0,17.4-3.3,24.1-10
				c6.7-6.7,10-14.7,10-24.1s-3.3-17.4-10-24.1c-6.7-6.7-14.7-10-24.1-10c-9.4,0-17.4,3.3-24.1,10
				C138.6,396.4,135.2,404.4,135.2,413.8z"/>
		</g>
	</g>
</g>
<g id="圖層_2">
</g>
</svg>
