<?xml version="1.0" encoding="utf-8"?>
<!-- Generator: Adobe Illustrator 22.1.0, SVG Export Plug-In . SVG Version: 6.00 Build 0)  -->
<svg version="1.1" xmlns="http://www.w3.org/2000/svg" xmlns:xlink="http://www.w3.org/1999/xlink" x="0px" y="0px"
	 viewBox="0 0 512 512" style="enable-background:new 0 0 512 512;" xml:space="preserve">
<style type="text/css">
	.st0{fill:#FFFFFF;}
</style>
<g id="圖層_1">
	<path class="st0" d="M477,256c0,127.1-99,230-221,230S35,383.1,35,256c0-127,99-230,221-230S477,129,477,256z M261.9,102
		c-48.6,0-79.5,21.3-103.9,59.1c-3.2,4.9-2.1,11.5,2.4,15.1l30.9,24.4c4.6,3.7,11.2,2.8,14.9-2c15.9-21,26.8-33.2,51.1-33.2
		c18.2,0,40.7,12.2,40.7,30.6c0,13.9-11,21-29,31.5c-21,12.2-48.7,27.5-48.7,65.5v3.7c0,6.1,4.8,11.1,10.7,11.1H281
		c5.9,0,10.7-5,10.7-11.1v-1.2c0-26.4,74.1-27.5,74.1-98.9C365.8,142.9,312.2,102,261.9,102z M256,332c-22.6,0-41,19.1-41,42.7
		c0,23.5,18.4,42.7,41,42.7s41-19.1,41-42.7C297,351.2,278.6,332,256,332z"/>
</g>
<g id="圖層_2">
</g>
</svg>
