<svg xmlns="http://www.w3.org/2000/svg" viewBox="0 0 42.51 47"><defs><style>.cls-1{fill:#f3666c;}</style></defs><title>資產 1</title><g id="圖層_2" data-name="圖層 2"><g id="Capa_1" data-name="Capa 1"><g id="Layer_1" data-name="Layer 1"><path class="cls-1" d="M21.25,7.23A14.09,14.09,0,0,0,7,21.06a16.5,16.5,0,0,0,3.48,10.05c.91,1.33,1.43,2.13,1.43,2.93a6,6,0,0,0,2.67,4.75c0,1.06.2,3.66.2,3.66h0c0,.74.41,2.25,3,3.09a4.27,4.27,0,0,0,1.17,1.15,1.82,1.82,0,0,0,1,.31h2.77a1.74,1.74,0,0,0,1-.31,4.27,4.27,0,0,0,1.17-1.15c2.56-.85,2.93-2.38,2.95-3.1,0,0,.16-2.59.2-3.65A6,6,0,0,0,30.64,34c0-.8.52-1.6,1.43-2.94a16.4,16.4,0,0,0,3.48-10A14.08,14.08,0,0,0,21.25,7.23Zm7.83,21.85c-1.06,1.54-2,3-2,5a2.69,2.69,0,0,1-1.36,2H16.84a2.69,2.69,0,0,1-1.36-2c0-1.95-1-3.42-2.06-5a13,13,0,0,1-2.85-8A10.47,10.47,0,0,1,21.26,10.85a10.46,10.46,0,0,1,10.68,10.2C31.94,24.89,30.42,27.1,29.08,29.08Z"/><path class="cls-1" d="M21.25,4.52a.9.9,0,0,0,.91-.9V.9a.91.91,0,0,0-1.81,0V3.62A.91.91,0,0,0,21.25,4.52Z"/><path class="cls-1" d="M11.65,6.43a.91.91,0,0,0,.79.45.92.92,0,0,0,.45-.12.9.9,0,0,0,.33-1.23L11.86,3.18a.9.9,0,0,0-1.56.9Z"/><path class="cls-1" d="M6.43,11.65,4.08,10.3a.9.9,0,1,0-.9,1.56l2.35,1.36a.92.92,0,0,0,.45.12.91.91,0,0,0,.45-1.69Z"/><path class="cls-1" d="M4.52,21.25a.91.91,0,0,0-.9-.9H.9a.91.91,0,0,0,0,1.81H3.62A.91.91,0,0,0,4.52,21.25Z"/><path class="cls-1" d="M5.53,29.29,3.18,30.65a.9.9,0,0,0-.33,1.23.89.89,0,0,0,.78.45.92.92,0,0,0,.45-.12l2.35-1.35a.91.91,0,0,0,.33-1.24A.9.9,0,0,0,5.53,29.29Z"/><path class="cls-1" d="M39.33,30.65,37,29.29a.9.9,0,0,0-1.23.33.91.91,0,0,0,.33,1.24l2.35,1.35a.82.82,0,0,0,.45.12.9.9,0,0,0,.45-1.68Z"/><path class="cls-1" d="M41.61,20.35H38.9a.91.91,0,1,0,0,1.81h2.71a.91.91,0,0,0,0-1.81Z"/><path class="cls-1" d="M36.53,13.34a.92.92,0,0,0,.45-.12l2.35-1.36a.9.9,0,0,0-.9-1.56l-2.35,1.35a.91.91,0,0,0,.45,1.69Z"/><path class="cls-1" d="M29.62,6.76a.92.92,0,0,0,.45.12.91.91,0,0,0,.79-.45l1.35-2.35a.9.9,0,0,0-1.56-.9L29.29,5.53A.9.9,0,0,0,29.62,6.76Z"/><path class="cls-1" d="M20,26.71c.11.8.5,1,1.21,1s1.11-.23,1.22-1l.85-6.44a9.77,9.77,0,0,0,.11-1.3V15.78a1.94,1.94,0,0,0-2.18-2.13,1.94,1.94,0,0,0-2.17,2.13V19a9.77,9.77,0,0,0,.11,1.3Z"/><path class="cls-1" d="M21.25,29.52a2.26,2.26,0,1,0,2.26,2.26A2.27,2.27,0,0,0,21.25,29.52Z"/></g></g></g></svg>