<?xml version="1.0" encoding="utf-8"?>
<!-- Generator: Adobe Illustrator 22.1.0, SVG Export Plug-In . SVG Version: 6.00 Build 0)  -->
<svg version="1.1" id="Layer_1" xmlns="http://www.w3.org/2000/svg" xmlns:xlink="http://www.w3.org/1999/xlink" x="0px" y="0px"
	 viewBox="0 0 408.8 408.8" style="enable-background:new 0 0 408.8 408.8;" xml:space="preserve">
<style type="text/css">
	.st0{fill:#475993;}
	.st1{fill:none;}
	.st2{fill:#00C200;}
	.st3{fill:#FFFFFF;}
	.st4{fill:#00C500;}
</style>
<path class="st0" d="M981.1,273.4H682.5c-30.4,0-55.1,24.7-55.1,55.1v298.6c0,30.4,24.7,55.1,55.1,55.1h147.3l0.3-146.1h-38
	c-4.9,0-8.9-4-9-8.9l-0.2-47.1c0-5,4-9,9-9h37.9v-45.5c0-52.8,32.2-81.6,79.3-81.6h38.6c4.9,0,9,4,9,9v39.7c0,4.9-4,9-9,9l-23.7,0
	c-25.6,0-30.6,12.2-30.6,30v39.4h56.3c5.4,0,9.5,4.7,8.9,10l-5.6,47.1c-0.5,4.5-4.4,7.9-8.9,7.9h-50.5l-0.3,146.1h87.6
	c30.4,0,55.1-24.7,55.1-55.1V328.5C1036.2,298,1011.6,273.4,981.1,273.4z"/>
<g>
	<path class="st1" d="M350.8,0H58c0,0,0,0,0,0L350.8,0C350.8,0,350.8,0,350.8,0z"/>
	<path class="st2" d="M350.8,0H58C26,0,0,26,0,58v292.8c0,32,26,58,58,58h292.8c32,0,58-26,58-58V58C408.8,26,382.8,0,350.8,0z
		 M353.9,187.9c-0.2,2.4-0.5,5.4-1.2,9.1c-1.8,11.5-5.8,22.5-11.4,32.8c-2.7,4.8-15.8,23.2-19.8,28.1
		c-22.1,26.6-59.2,57.4-121.1,87.3c-5.8,2.8-12.4-1.9-11.7-8.2l3.1-28.1c0.5-4.5-2.7-8.5-7.2-9c-73.3-7.7-129.9-57.6-129.9-118
		c0-65.7,67-119,149.6-119c80.3,0,145.8,50.3,149.5,113.5C353.9,178.1,354.2,184,353.9,187.9z"/>
	<path class="st3" d="M204.4,62.8c-82.6,0-149.6,53.3-149.6,119c0,60.4,56.6,110.3,129.9,118c4.5,0.5,7.7,4.5,7.2,9l-3.1,28.1
		c-0.7,6.4,5.9,11,11.7,8.2c61.9-29.9,99-60.6,121.1-87.3c4-4.8,17.1-23.2,19.8-28.1c5.7-10.3,9.6-21.3,11.4-32.8
		c0.7-3.6,1-6.7,1.2-9.1c0.3-3.9,0-9.8-0.1-11.6C350.2,113.1,284.7,62.8,204.4,62.8z M145,221.2h-30.6c-4.2,0-7.7-3.4-7.7-7.7v-57.8
		c0-4.2,3.4-7.7,7.7-7.7s7.7,3.4,7.7,7.7v50.1h23c4.2,0,7.7,3.4,7.7,7.7C152.7,217.8,149.3,221.2,145,221.2z M175.3,215.3
		c0,3.3-2.7,6-6,6h-3.3c-3.3,0-6-2.7-6-6v-61.1c0-3.3,2.7-6,6-6h3.3c3.3,0,6,2.7,6,6V215.3z M246.4,213.3c0,4.2-3.5,8-7.7,8
		c-2,0-3.8-0.8-5.2-2.1c-0.5-0.4-31.5-40.6-31.5-40.6v35.1c0,4.2-3.4,7.7-7.7,7.7s-7.7-3.4-7.7-7.7v-57.5c0-4.2,3.2-7.8,7.4-8
		c2.4-0.1,4.5,0.9,6,2.6c0.5,0.5,31,40.4,31,40.4v-35.3c0-4.2,3.4-7.7,7.7-7.7c4.2,0,7.7,3.4,7.7,7.7V213.3z M296.2,177
		c4.2,0,7.7,3.4,7.7,7.7c0,4.2-3.4,7.7-7.7,7.7h-23v13.6h23c4.2,0,7.7,3.4,7.7,7.7c0,4.2-3.4,7.7-7.7,7.7h-30.6
		c-4.2,0-7.7-3.4-7.7-7.7v-57.8c0-4.2,3.4-7.7,7.7-7.7h30.6c4.2,0,7.7,3.4,7.7,7.7c0,4.2-3.4,7.7-7.7,7.7h-23V177H296.2z"/>
	<path class="st4" d="M145,205.9h-23v-50.1c0-4.2-3.4-7.7-7.7-7.7s-7.7,3.4-7.7,7.7v57.8c0,4.2,3.4,7.7,7.7,7.7H145
		c4.2,0,7.7-3.4,7.7-7.7C152.7,209.4,149.3,205.9,145,205.9z"/>
	<path class="st4" d="M169.3,148.2h-3.3c-3.3,0-6,2.7-6,6v61.1c0,3.3,2.7,6,6,6h3.3c3.3,0,6-2.7,6-6v-61.1
		C175.3,150.8,172.6,148.2,169.3,148.2z"/>
	<path class="st4" d="M238.8,148.2c-4.2,0-7.7,3.4-7.7,7.7v35.3c0,0-30.6-39.9-31-40.4c-1.5-1.6-3.6-2.6-6-2.6
		c-4.2,0.2-7.4,3.8-7.4,8v57.5c0,4.2,3.4,7.7,7.7,7.7s7.7-3.4,7.7-7.7v-35.1c0,0,31,40.2,31.5,40.6c1.4,1.3,3.2,2.1,5.2,2.1
		c4.2,0,7.7-3.7,7.7-8v-57.5C246.4,151.6,243,148.2,238.8,148.2z"/>
	<path class="st4" d="M296.2,163.5c4.2,0,7.7-3.4,7.7-7.7c0-4.2-3.4-7.7-7.7-7.7h-30.6c-4.2,0-7.7,3.4-7.7,7.7v57.8
		c0,4.2,3.4,7.7,7.7,7.7h30.6c4.2,0,7.7-3.4,7.7-7.7c0-4.2-3.4-7.7-7.7-7.7h-23v-13.6h23c4.2,0,7.7-3.4,7.7-7.7
		c0-4.2-3.4-7.7-7.7-7.7h-23v-13.6H296.2z"/>
</g>
</svg>
