<svg xmlns="http://www.w3.org/2000/svg" viewBox="0 0 371.99 512"><defs><style>.cls-1{fill:#fff;}</style></defs><title>資產 1</title><g id="圖層_2" data-name="圖層 2"><g id="Layer_1" data-name="Layer 1"><path class="cls-1" d="M355.29,51.36H263.84V16.7A16.7,16.7,0,0,0,247.14,0H124.85a16.7,16.7,0,0,0-16.7,16.7V51.36H16.7A16.7,16.7,0,0,0,0,68.05v51.36a16.7,16.7,0,0,0,16.7,16.7H355.29a16.7,16.7,0,0,0,16.7-16.7V68.05A16.7,16.7,0,0,0,355.29,51.36Zm-124.85,0h-88.9v-18h88.9Z"/><path class="cls-1" d="M23.18,169.5,37,496a16.69,16.69,0,0,0,16.68,16H318.28A16.7,16.7,0,0,0,335,496L348.8,169.5ZM135.52,444.11a16.7,16.7,0,0,1-33.39,0V237.39a16.7,16.7,0,0,1,33.39,0Zm67.17,0a16.7,16.7,0,0,1-33.4,0V237.39a16.7,16.7,0,0,1,33.4,0Zm67.16,0a16.7,16.7,0,0,1-33.39,0V237.39a16.7,16.7,0,0,1,33.39,0V444.11Z"/></g></g></svg>